<mxfile host="app.diagrams.net" agent="Mozilla/5.0 (Windows NT 10.0; Win64; x64) AppleWebKit/537.36 (KHTML, like Gecko) Chrome/136.0.0.0 Safari/537.36" version="27.0.6">
  <diagram name="Page-1" id="PtjNkwRfFAkDJR_Q5eML">
    <mxGraphModel dx="1141" dy="636" grid="1" gridSize="10" guides="1" tooltips="1" connect="1" arrows="1" fold="1" page="1" pageScale="1" pageWidth="850" pageHeight="1100" math="0" shadow="0">
      <root>
        <mxCell id="0" />
        <mxCell id="1" parent="0" />
        <mxCell id="tKd9VKNloMtMB1oQu506-7" style="edgeStyle=orthogonalEdgeStyle;rounded=0;orthogonalLoop=1;jettySize=auto;html=1;entryX=0.794;entryY=0.995;entryDx=0;entryDy=0;entryPerimeter=0;" edge="1" parent="1" target="tKd9VKNloMtMB1oQu506-5">
          <mxGeometry relative="1" as="geometry">
            <mxPoint x="460" y="290" as="sourcePoint" />
            <mxPoint x="465" y="160" as="targetPoint" />
            <Array as="points">
              <mxPoint x="460" y="250" />
              <mxPoint x="460" y="250" />
            </Array>
          </mxGeometry>
        </mxCell>
        <mxCell id="tKd9VKNloMtMB1oQu506-10" value="Video&lt;div&gt;&amp;nbsp;sadržaj&lt;/div&gt;" style="edgeLabel;html=1;align=center;verticalAlign=middle;resizable=0;points=[];" vertex="1" connectable="0" parent="tKd9VKNloMtMB1oQu506-7">
          <mxGeometry x="0.367" y="-3" relative="1" as="geometry">
            <mxPoint y="19" as="offset" />
          </mxGeometry>
        </mxCell>
        <mxCell id="tKd9VKNloMtMB1oQu506-13" style="edgeStyle=orthogonalEdgeStyle;rounded=0;orthogonalLoop=1;jettySize=auto;html=1;entryX=1;entryY=0.5;entryDx=0;entryDy=0;" edge="1" parent="1">
          <mxGeometry relative="1" as="geometry">
            <mxPoint x="345" y="369.9999999999999" as="sourcePoint" />
            <mxPoint x="220" y="369.9999999999999" as="targetPoint" />
          </mxGeometry>
        </mxCell>
        <mxCell id="tKd9VKNloMtMB1oQu506-14" value="Dostava video&lt;div&gt;materijala&lt;/div&gt;" style="edgeLabel;html=1;align=center;verticalAlign=middle;resizable=0;points=[];" vertex="1" connectable="0" parent="tKd9VKNloMtMB1oQu506-13">
          <mxGeometry x="0.2183" y="3" relative="1" as="geometry">
            <mxPoint x="11" as="offset" />
          </mxGeometry>
        </mxCell>
        <mxCell id="tKd9VKNloMtMB1oQu506-21" style="edgeStyle=orthogonalEdgeStyle;rounded=0;orthogonalLoop=1;jettySize=auto;html=1;entryX=0;entryY=0.5;entryDx=0;entryDy=0;" edge="1" parent="1">
          <mxGeometry relative="1" as="geometry">
            <mxPoint x="505" y="369.9999999999999" as="sourcePoint" />
            <mxPoint x="630" y="369.9999999999999" as="targetPoint" />
          </mxGeometry>
        </mxCell>
        <mxCell id="tKd9VKNloMtMB1oQu506-22" value="Statistika" style="edgeLabel;html=1;align=center;verticalAlign=middle;resizable=0;points=[];" vertex="1" connectable="0" parent="tKd9VKNloMtMB1oQu506-21">
          <mxGeometry x="-0.1497" y="-1" relative="1" as="geometry">
            <mxPoint x="12" as="offset" />
          </mxGeometry>
        </mxCell>
        <object label="P0" id="tKd9VKNloMtMB1oQu506-1">
          <mxCell style="swimlane;childLayout=stackLayout;horizontal=1;startSize=50;horizontalStack=0;rounded=1;fontSize=14;fontStyle=0;strokeWidth=2;resizeParent=0;resizeLast=1;shadow=0;dashed=0;align=center;arcSize=4;whiteSpace=wrap;html=1;" vertex="1" parent="1">
            <mxGeometry x="345" y="290" width="160" height="120" as="geometry" />
          </mxCell>
        </object>
        <mxCell id="tKd9VKNloMtMB1oQu506-2" value="&lt;br&gt;&lt;div&gt;&lt;b&gt;NovaFlix Online Videoteka&lt;/b&gt;&lt;/div&gt;&lt;div&gt;&lt;b&gt;&lt;br&gt;&lt;/b&gt;&lt;/div&gt;" style="align=center;strokeColor=none;fillColor=none;spacingLeft=4;fontSize=12;verticalAlign=top;resizable=0;rotatable=0;part=1;html=1;" vertex="1" parent="tKd9VKNloMtMB1oQu506-1">
          <mxGeometry y="50" width="160" height="70" as="geometry" />
        </mxCell>
        <object label="&lt;b&gt;Dobavljač video sadržaja&lt;/b&gt;" placeholders="1" tKd9VKNloMtMB1oQu506-4="Korisnik" id="tKd9VKNloMtMB1oQu506-4">
          <mxCell style="rounded=0;whiteSpace=wrap;html=1;" vertex="1" parent="1">
            <mxGeometry x="100" y="320" width="120" height="60" as="geometry" />
          </mxCell>
        </object>
        <mxCell id="tKd9VKNloMtMB1oQu506-6" style="edgeStyle=orthogonalEdgeStyle;rounded=0;orthogonalLoop=1;jettySize=auto;html=1;entryX=0.28;entryY=0.005;entryDx=0;entryDy=0;entryPerimeter=0;" edge="1" parent="1">
          <mxGeometry relative="1" as="geometry">
            <mxPoint x="425.2" y="159.4" as="sourcePoint" />
            <mxPoint x="390.00000000000006" y="290" as="targetPoint" />
            <Array as="points" />
          </mxGeometry>
        </mxCell>
        <mxCell id="tKd9VKNloMtMB1oQu506-9" value="Zahtjev za&lt;div&gt;&amp;nbsp;streaming&lt;/div&gt;" style="edgeLabel;html=1;align=center;verticalAlign=middle;resizable=0;points=[];" vertex="1" connectable="0" parent="tKd9VKNloMtMB1oQu506-6">
          <mxGeometry x="0.0151" y="-2" relative="1" as="geometry">
            <mxPoint y="11" as="offset" />
          </mxGeometry>
        </mxCell>
        <mxCell id="tKd9VKNloMtMB1oQu506-5" value="&lt;b&gt;Korisnik&lt;/b&gt;" style="whiteSpace=wrap;html=1;" vertex="1" parent="1">
          <mxGeometry x="365" y="100" width="120" height="60" as="geometry" />
        </mxCell>
        <mxCell id="tKd9VKNloMtMB1oQu506-11" style="edgeStyle=orthogonalEdgeStyle;rounded=0;orthogonalLoop=1;jettySize=auto;html=1;entryX=-0.007;entryY=0.141;entryDx=0;entryDy=0;entryPerimeter=0;" edge="1" parent="1">
          <mxGeometry relative="1" as="geometry">
            <mxPoint x="221.12" y="330.1300000000001" as="sourcePoint" />
            <mxPoint x="345.0000000000001" y="329.9999999999999" as="targetPoint" />
          </mxGeometry>
        </mxCell>
        <mxCell id="tKd9VKNloMtMB1oQu506-12" value="Narudžba" style="edgeLabel;html=1;align=center;verticalAlign=middle;resizable=0;points=[];" vertex="1" connectable="0" parent="tKd9VKNloMtMB1oQu506-11">
          <mxGeometry x="-0.2412" y="-1" relative="1" as="geometry">
            <mxPoint x="12" as="offset" />
          </mxGeometry>
        </mxCell>
        <mxCell id="tKd9VKNloMtMB1oQu506-18" style="edgeStyle=orthogonalEdgeStyle;rounded=0;orthogonalLoop=1;jettySize=auto;html=1;entryX=1;entryY=0.5;entryDx=0;entryDy=0;" edge="1" parent="1">
          <mxGeometry relative="1" as="geometry">
            <mxPoint x="630" y="329.9999999999999" as="sourcePoint" />
            <mxPoint x="505" y="329.9999999999999" as="targetPoint" />
          </mxGeometry>
        </mxCell>
        <mxCell id="tKd9VKNloMtMB1oQu506-19" value="Upravljanje&lt;div&gt;sadržajem&lt;/div&gt;" style="edgeLabel;html=1;align=center;verticalAlign=middle;resizable=0;points=[];" vertex="1" connectable="0" parent="tKd9VKNloMtMB1oQu506-18">
          <mxGeometry x="0.2526" y="-1" relative="1" as="geometry">
            <mxPoint x="19" as="offset" />
          </mxGeometry>
        </mxCell>
        <mxCell id="tKd9VKNloMtMB1oQu506-15" value="&lt;b&gt;Administrator&lt;/b&gt;" style="rounded=0;whiteSpace=wrap;html=1;" vertex="1" parent="1">
          <mxGeometry x="630" y="320" width="120" height="60" as="geometry" />
        </mxCell>
        <mxCell id="tKd9VKNloMtMB1oQu506-24" style="edgeStyle=orthogonalEdgeStyle;rounded=0;orthogonalLoop=1;jettySize=auto;html=1;entryX=0.5;entryY=1;entryDx=0;entryDy=0;" edge="1" parent="1">
          <mxGeometry relative="1" as="geometry">
            <mxPoint x="390" y="550" as="sourcePoint" />
            <mxPoint x="390" y="409.9999999999999" as="targetPoint" />
          </mxGeometry>
        </mxCell>
        <mxCell id="tKd9VKNloMtMB1oQu506-25" value="Potvrda&lt;div&gt;&amp;nbsp;transakcije&lt;/div&gt;" style="edgeLabel;html=1;align=center;verticalAlign=middle;resizable=0;points=[];" vertex="1" connectable="0" parent="tKd9VKNloMtMB1oQu506-24">
          <mxGeometry x="0.2878" y="3" relative="1" as="geometry">
            <mxPoint y="20" as="offset" />
          </mxGeometry>
        </mxCell>
        <mxCell id="tKd9VKNloMtMB1oQu506-23" value="&lt;b&gt;Plaćanje usluga&lt;/b&gt;" style="rounded=0;whiteSpace=wrap;html=1;" vertex="1" parent="1">
          <mxGeometry x="365" y="550" width="120" height="60" as="geometry" />
        </mxCell>
        <mxCell id="tKd9VKNloMtMB1oQu506-26" style="edgeStyle=orthogonalEdgeStyle;rounded=0;orthogonalLoop=1;jettySize=auto;html=1;" edge="1" parent="1">
          <mxGeometry relative="1" as="geometry">
            <mxPoint x="460" y="409.9999999999999" as="sourcePoint" />
            <mxPoint x="460" y="550" as="targetPoint" />
          </mxGeometry>
        </mxCell>
        <mxCell id="tKd9VKNloMtMB1oQu506-27" value="Zahtjev za&amp;nbsp;&lt;div&gt;plaćanje&lt;/div&gt;" style="edgeLabel;html=1;align=center;verticalAlign=middle;resizable=0;points=[];" vertex="1" connectable="0" parent="tKd9VKNloMtMB1oQu506-26">
          <mxGeometry x="-0.1551" y="2" relative="1" as="geometry">
            <mxPoint y="11" as="offset" />
          </mxGeometry>
        </mxCell>
      </root>
    </mxGraphModel>
  </diagram>
</mxfile>
